<mxfile host="app.diagrams.net" modified="2021-01-06T19:07:58.299Z" agent="5.0 (Windows NT 10.0; Win64; x64) AppleWebKit/537.36 (KHTML, like Gecko) Chrome/87.0.4280.88 Safari/537.36" etag="rQshQhoGeVa0CR_qUk3w" version="14.1.8" type="github" pages="3">
  <diagram id="t7AAfB5uRZc5TJ6AGRy_" name="UseCase: Igra Vješala">
    <mxGraphModel dx="744" dy="422" grid="1" gridSize="10" guides="1" tooltips="1" connect="1" arrows="1" fold="1" page="1" pageScale="1" pageWidth="827" pageHeight="1169" math="0" shadow="0">
      <root>
        <mxCell id="0" />
        <mxCell id="1" parent="0" />
        <mxCell id="uMafSdMmmjQVVe1kIT9z-1" value="Igrač&lt;br&gt;" style="shape=umlActor;verticalLabelPosition=bottom;verticalAlign=top;html=1;" vertex="1" parent="1">
          <mxGeometry x="50" y="60" width="30" height="60" as="geometry" />
        </mxCell>
        <mxCell id="uMafSdMmmjQVVe1kIT9z-2" value="Igranje Vješala" style="ellipse;whiteSpace=wrap;html=1;" vertex="1" parent="1">
          <mxGeometry x="160" y="50" width="120" height="80" as="geometry" />
        </mxCell>
        <mxCell id="uMafSdMmmjQVVe1kIT9z-5" value="" style="endArrow=none;html=1;entryX=0;entryY=0.5;entryDx=0;entryDy=0;exitX=0.5;exitY=0.5;exitDx=0;exitDy=0;exitPerimeter=0;" edge="1" parent="1" source="uMafSdMmmjQVVe1kIT9z-1" target="uMafSdMmmjQVVe1kIT9z-2">
          <mxGeometry width="50" height="50" relative="1" as="geometry">
            <mxPoint x="150" y="180" as="sourcePoint" />
            <mxPoint x="290" y="290" as="targetPoint" />
          </mxGeometry>
        </mxCell>
        <mxCell id="uMafSdMmmjQVVe1kIT9z-6" value="Unos imena" style="ellipse;whiteSpace=wrap;html=1;" vertex="1" parent="1">
          <mxGeometry x="400" y="10" width="120" height="80" as="geometry" />
        </mxCell>
        <mxCell id="uMafSdMmmjQVVe1kIT9z-7" value="Generiranje zagonetki" style="ellipse;whiteSpace=wrap;html=1;" vertex="1" parent="1">
          <mxGeometry x="400" y="100" width="120" height="80" as="geometry" />
        </mxCell>
        <mxCell id="uMafSdMmmjQVVe1kIT9z-8" value="Pogađanje riječi" style="ellipse;whiteSpace=wrap;html=1;" vertex="1" parent="1">
          <mxGeometry x="400" y="190" width="120" height="80" as="geometry" />
        </mxCell>
        <mxCell id="uMafSdMmmjQVVe1kIT9z-9" value="Bodovanje" style="ellipse;whiteSpace=wrap;html=1;" vertex="1" parent="1">
          <mxGeometry x="400" y="280" width="120" height="80" as="geometry" />
        </mxCell>
        <mxCell id="uMafSdMmmjQVVe1kIT9z-11" value="Use" style="endArrow=open;endSize=12;dashed=1;html=1;exitX=1;exitY=0.5;exitDx=0;exitDy=0;entryX=0;entryY=0.5;entryDx=0;entryDy=0;" edge="1" parent="1" source="uMafSdMmmjQVVe1kIT9z-2" target="uMafSdMmmjQVVe1kIT9z-7">
          <mxGeometry width="160" relative="1" as="geometry">
            <mxPoint x="300" y="210" as="sourcePoint" />
            <mxPoint x="460" y="210" as="targetPoint" />
          </mxGeometry>
        </mxCell>
        <mxCell id="uMafSdMmmjQVVe1kIT9z-12" value="Use" style="endArrow=open;endSize=12;dashed=1;html=1;entryX=0;entryY=0.5;entryDx=0;entryDy=0;" edge="1" parent="1" source="uMafSdMmmjQVVe1kIT9z-2" target="uMafSdMmmjQVVe1kIT9z-6">
          <mxGeometry width="160" relative="1" as="geometry">
            <mxPoint x="300" y="210" as="sourcePoint" />
            <mxPoint x="460" y="210" as="targetPoint" />
          </mxGeometry>
        </mxCell>
        <mxCell id="uMafSdMmmjQVVe1kIT9z-13" value="Use" style="endArrow=open;endSize=12;dashed=1;html=1;exitX=0.949;exitY=0.778;exitDx=0;exitDy=0;exitPerimeter=0;entryX=0.017;entryY=0.313;entryDx=0;entryDy=0;entryPerimeter=0;" edge="1" parent="1" source="uMafSdMmmjQVVe1kIT9z-2" target="uMafSdMmmjQVVe1kIT9z-8">
          <mxGeometry width="160" relative="1" as="geometry">
            <mxPoint x="300" y="210" as="sourcePoint" />
            <mxPoint x="460" y="210" as="targetPoint" />
          </mxGeometry>
        </mxCell>
        <mxCell id="uMafSdMmmjQVVe1kIT9z-14" value="Use" style="endArrow=open;endSize=12;dashed=1;html=1;exitX=0.782;exitY=0.972;exitDx=0;exitDy=0;exitPerimeter=0;entryX=0;entryY=0.5;entryDx=0;entryDy=0;" edge="1" parent="1" source="uMafSdMmmjQVVe1kIT9z-2" target="uMafSdMmmjQVVe1kIT9z-9">
          <mxGeometry width="160" relative="1" as="geometry">
            <mxPoint x="300" y="210" as="sourcePoint" />
            <mxPoint x="460" y="210" as="targetPoint" />
          </mxGeometry>
        </mxCell>
      </root>
    </mxGraphModel>
  </diagram>
  <diagram id="A4QDlll-oGeCQvx7pcKY" name="Activity: Igranje Vješala">
    <mxGraphModel dx="744" dy="422" grid="1" gridSize="10" guides="1" tooltips="1" connect="1" arrows="1" fold="1" page="1" pageScale="1" pageWidth="827" pageHeight="1169" math="0" shadow="0">
      <root>
        <mxCell id="Zv0s2zPi0mleXZcaLCtx-0" />
        <mxCell id="Zv0s2zPi0mleXZcaLCtx-1" parent="Zv0s2zPi0mleXZcaLCtx-0" />
        <mxCell id="Zv0s2zPi0mleXZcaLCtx-2" value="" style="ellipse;html=1;shape=startState;fillColor=#000000;strokeColor=#ff0000;" vertex="1" parent="Zv0s2zPi0mleXZcaLCtx-1">
          <mxGeometry x="310" y="20" width="30" height="30" as="geometry" />
        </mxCell>
        <mxCell id="Zv0s2zPi0mleXZcaLCtx-3" value="" style="edgeStyle=orthogonalEdgeStyle;html=1;verticalAlign=bottom;endArrow=open;endSize=8;strokeColor=#ff0000;" edge="1" source="Zv0s2zPi0mleXZcaLCtx-2" parent="Zv0s2zPi0mleXZcaLCtx-1">
          <mxGeometry relative="1" as="geometry">
            <mxPoint x="325" y="110" as="targetPoint" />
          </mxGeometry>
        </mxCell>
        <mxCell id="Zv0s2zPi0mleXZcaLCtx-4" value="Unos imena" style="rounded=1;whiteSpace=wrap;html=1;arcSize=40;fontColor=#000000;fillColor=#ffffc0;strokeColor=#ff0000;" vertex="1" parent="Zv0s2zPi0mleXZcaLCtx-1">
          <mxGeometry x="265" y="110" width="120" height="40" as="geometry" />
        </mxCell>
        <mxCell id="Zv0s2zPi0mleXZcaLCtx-5" value="" style="edgeStyle=orthogonalEdgeStyle;html=1;verticalAlign=bottom;endArrow=open;endSize=8;strokeColor=#ff0000;" edge="1" source="Zv0s2zPi0mleXZcaLCtx-4" parent="Zv0s2zPi0mleXZcaLCtx-1">
          <mxGeometry relative="1" as="geometry">
            <mxPoint x="325" y="210" as="targetPoint" />
          </mxGeometry>
        </mxCell>
        <mxCell id="Zv0s2zPi0mleXZcaLCtx-6" value="Generiranje zagonetki" style="rounded=1;whiteSpace=wrap;html=1;arcSize=40;fontColor=#000000;fillColor=#ffffc0;strokeColor=#ff0000;" vertex="1" parent="Zv0s2zPi0mleXZcaLCtx-1">
          <mxGeometry x="265" y="210" width="120" height="40" as="geometry" />
        </mxCell>
        <mxCell id="Zv0s2zPi0mleXZcaLCtx-7" value="" style="edgeStyle=orthogonalEdgeStyle;html=1;verticalAlign=bottom;endArrow=open;endSize=8;strokeColor=#ff0000;" edge="1" source="Zv0s2zPi0mleXZcaLCtx-6" parent="Zv0s2zPi0mleXZcaLCtx-1">
          <mxGeometry relative="1" as="geometry">
            <mxPoint x="325" y="310" as="targetPoint" />
          </mxGeometry>
        </mxCell>
        <mxCell id="5e64gRpfo2R-UP8L5tnI-0" value="Pogađanje riječi" style="rounded=1;whiteSpace=wrap;html=1;arcSize=40;fontColor=#000000;fillColor=#ffffc0;strokeColor=#ff0000;" vertex="1" parent="Zv0s2zPi0mleXZcaLCtx-1">
          <mxGeometry x="265" y="310" width="120" height="40" as="geometry" />
        </mxCell>
        <mxCell id="5e64gRpfo2R-UP8L5tnI-1" value="" style="edgeStyle=orthogonalEdgeStyle;html=1;verticalAlign=bottom;endArrow=open;endSize=8;strokeColor=#ff0000;" edge="1" source="5e64gRpfo2R-UP8L5tnI-0" parent="Zv0s2zPi0mleXZcaLCtx-1">
          <mxGeometry relative="1" as="geometry">
            <mxPoint x="325" y="410" as="targetPoint" />
          </mxGeometry>
        </mxCell>
        <mxCell id="5e64gRpfo2R-UP8L5tnI-2" value="Igrač je pogodio sva slova" style="rhombus;whiteSpace=wrap;html=1;fillColor=#ffffc0;strokeColor=#ff0000;" vertex="1" parent="Zv0s2zPi0mleXZcaLCtx-1">
          <mxGeometry x="251.25" y="410" width="147.5" height="90" as="geometry" />
        </mxCell>
        <mxCell id="5e64gRpfo2R-UP8L5tnI-3" value="no" style="edgeStyle=orthogonalEdgeStyle;html=1;align=left;verticalAlign=bottom;endArrow=open;endSize=8;strokeColor=#ff0000;" edge="1" source="5e64gRpfo2R-UP8L5tnI-2" parent="Zv0s2zPi0mleXZcaLCtx-1">
          <mxGeometry x="-1" relative="1" as="geometry">
            <mxPoint x="450" y="455" as="targetPoint" />
          </mxGeometry>
        </mxCell>
        <mxCell id="5e64gRpfo2R-UP8L5tnI-4" value="yes" style="edgeStyle=orthogonalEdgeStyle;html=1;align=left;verticalAlign=top;endArrow=open;endSize=8;strokeColor=#ff0000;" edge="1" source="5e64gRpfo2R-UP8L5tnI-2" parent="Zv0s2zPi0mleXZcaLCtx-1">
          <mxGeometry x="-1" relative="1" as="geometry">
            <mxPoint x="325" y="530" as="targetPoint" />
          </mxGeometry>
        </mxCell>
        <mxCell id="TKq9qSUuUsBXnSqAV_0W-1" value="Bodovanje" style="rounded=1;whiteSpace=wrap;html=1;arcSize=40;fontColor=#000000;fillColor=#ffffc0;strokeColor=#ff0000;" vertex="1" parent="Zv0s2zPi0mleXZcaLCtx-1">
          <mxGeometry x="267.5" y="530" width="120" height="40" as="geometry" />
        </mxCell>
        <mxCell id="TKq9qSUuUsBXnSqAV_0W-2" value="" style="edgeStyle=orthogonalEdgeStyle;html=1;verticalAlign=bottom;endArrow=open;endSize=8;strokeColor=#ff0000;" edge="1" source="TKq9qSUuUsBXnSqAV_0W-1" parent="Zv0s2zPi0mleXZcaLCtx-1">
          <mxGeometry relative="1" as="geometry">
            <mxPoint x="327.5" y="630" as="targetPoint" />
          </mxGeometry>
        </mxCell>
        <mxCell id="TKq9qSUuUsBXnSqAV_0W-3" value="" style="ellipse;html=1;shape=endState;fillColor=#000000;strokeColor=#ff0000;" vertex="1" parent="Zv0s2zPi0mleXZcaLCtx-1">
          <mxGeometry x="312.5" y="630" width="30" height="30" as="geometry" />
        </mxCell>
        <mxCell id="TKq9qSUuUsBXnSqAV_0W-6" value="Nastavak igre" style="rounded=1;whiteSpace=wrap;html=1;arcSize=40;fontColor=#000000;fillColor=#ffffc0;strokeColor=#ff0000;" vertex="1" parent="Zv0s2zPi0mleXZcaLCtx-1">
          <mxGeometry x="450" y="440" width="120" height="40" as="geometry" />
        </mxCell>
        <mxCell id="TKq9qSUuUsBXnSqAV_0W-7" value="" style="edgeStyle=orthogonalEdgeStyle;html=1;verticalAlign=bottom;endArrow=open;endSize=8;strokeColor=#ff0000;" edge="1" source="TKq9qSUuUsBXnSqAV_0W-6" parent="Zv0s2zPi0mleXZcaLCtx-1">
          <mxGeometry relative="1" as="geometry">
            <mxPoint x="250" y="460" as="targetPoint" />
            <Array as="points">
              <mxPoint x="510" y="671" />
              <mxPoint x="190" y="671" />
            </Array>
          </mxGeometry>
        </mxCell>
      </root>
    </mxGraphModel>
  </diagram>
  <diagram id="lLZ3rtmIU1pkREQOlgfz" name="Activity: Unos imena">
    <mxGraphModel dx="744" dy="422" grid="1" gridSize="10" guides="1" tooltips="1" connect="1" arrows="1" fold="1" page="1" pageScale="1" pageWidth="827" pageHeight="1169" math="0" shadow="0">
      <root>
        <mxCell id="8glMOwJfJuNUVCbfL2xH-0" />
        <mxCell id="8glMOwJfJuNUVCbfL2xH-1" parent="8glMOwJfJuNUVCbfL2xH-0" />
        <mxCell id="8glMOwJfJuNUVCbfL2xH-2" value="" style="ellipse;html=1;shape=startState;fillColor=#000000;strokeColor=#ff0000;" vertex="1" parent="8glMOwJfJuNUVCbfL2xH-1">
          <mxGeometry x="300" y="20" width="30" height="30" as="geometry" />
        </mxCell>
        <mxCell id="8glMOwJfJuNUVCbfL2xH-3" value="" style="edgeStyle=orthogonalEdgeStyle;html=1;verticalAlign=bottom;endArrow=open;endSize=8;strokeColor=#ff0000;" edge="1" source="8glMOwJfJuNUVCbfL2xH-2" parent="8glMOwJfJuNUVCbfL2xH-1">
          <mxGeometry relative="1" as="geometry">
            <mxPoint x="315" y="110" as="targetPoint" />
          </mxGeometry>
        </mxCell>
        <mxCell id="8glMOwJfJuNUVCbfL2xH-4" value="Sustav prikaže unos imena" style="rounded=1;whiteSpace=wrap;html=1;arcSize=40;fontColor=#000000;fillColor=#ffffc0;strokeColor=#ff0000;" vertex="1" parent="8glMOwJfJuNUVCbfL2xH-1">
          <mxGeometry x="255" y="110" width="120" height="40" as="geometry" />
        </mxCell>
        <mxCell id="8glMOwJfJuNUVCbfL2xH-5" value="" style="edgeStyle=orthogonalEdgeStyle;html=1;verticalAlign=bottom;endArrow=open;endSize=8;strokeColor=#ff0000;" edge="1" source="8glMOwJfJuNUVCbfL2xH-4" parent="8glMOwJfJuNUVCbfL2xH-1">
          <mxGeometry relative="1" as="geometry">
            <mxPoint x="315" y="210" as="targetPoint" />
          </mxGeometry>
        </mxCell>
        <mxCell id="8glMOwJfJuNUVCbfL2xH-6" value="Igrač unese ime" style="rounded=1;whiteSpace=wrap;html=1;arcSize=40;fontColor=#000000;fillColor=#ffffc0;strokeColor=#ff0000;" vertex="1" parent="8glMOwJfJuNUVCbfL2xH-1">
          <mxGeometry x="255" y="210" width="120" height="40" as="geometry" />
        </mxCell>
        <mxCell id="8glMOwJfJuNUVCbfL2xH-7" value="" style="edgeStyle=orthogonalEdgeStyle;html=1;verticalAlign=bottom;endArrow=open;endSize=8;strokeColor=#ff0000;" edge="1" source="8glMOwJfJuNUVCbfL2xH-6" parent="8glMOwJfJuNUVCbfL2xH-1">
          <mxGeometry relative="1" as="geometry">
            <mxPoint x="315" y="310" as="targetPoint" />
          </mxGeometry>
        </mxCell>
        <mxCell id="8glMOwJfJuNUVCbfL2xH-8" value="Sustav provjeri valjanost unosa" style="rounded=1;whiteSpace=wrap;html=1;arcSize=40;fontColor=#000000;fillColor=#ffffc0;strokeColor=#ff0000;" vertex="1" parent="8glMOwJfJuNUVCbfL2xH-1">
          <mxGeometry x="255" y="310" width="120" height="40" as="geometry" />
        </mxCell>
        <mxCell id="8glMOwJfJuNUVCbfL2xH-9" value="" style="edgeStyle=orthogonalEdgeStyle;html=1;verticalAlign=bottom;endArrow=open;endSize=8;strokeColor=#ff0000;" edge="1" source="8glMOwJfJuNUVCbfL2xH-8" parent="8glMOwJfJuNUVCbfL2xH-1">
          <mxGeometry relative="1" as="geometry">
            <mxPoint x="315" y="410" as="targetPoint" />
          </mxGeometry>
        </mxCell>
        <mxCell id="8glMOwJfJuNUVCbfL2xH-10" value="Valjanost imena" style="rhombus;whiteSpace=wrap;html=1;fillColor=#ffffc0;strokeColor=#ff0000;" vertex="1" parent="8glMOwJfJuNUVCbfL2xH-1">
          <mxGeometry x="250" y="410" width="130" height="60" as="geometry" />
        </mxCell>
        <mxCell id="8glMOwJfJuNUVCbfL2xH-11" value="no" style="edgeStyle=orthogonalEdgeStyle;html=1;align=left;verticalAlign=bottom;endArrow=open;endSize=8;strokeColor=#ff0000;entryX=1;entryY=0.25;entryDx=0;entryDy=0;" edge="1" source="8glMOwJfJuNUVCbfL2xH-10" parent="8glMOwJfJuNUVCbfL2xH-1" target="8glMOwJfJuNUVCbfL2xH-4">
          <mxGeometry x="-1" relative="1" as="geometry">
            <mxPoint x="480" y="124" as="targetPoint" />
            <Array as="points">
              <mxPoint x="490" y="440" />
              <mxPoint x="490" y="120" />
            </Array>
          </mxGeometry>
        </mxCell>
        <mxCell id="8glMOwJfJuNUVCbfL2xH-12" value="yes" style="edgeStyle=orthogonalEdgeStyle;html=1;align=left;verticalAlign=top;endArrow=open;endSize=8;strokeColor=#ff0000;" edge="1" source="8glMOwJfJuNUVCbfL2xH-10" parent="8glMOwJfJuNUVCbfL2xH-1">
          <mxGeometry x="-1" relative="1" as="geometry">
            <mxPoint x="315" y="530" as="targetPoint" />
          </mxGeometry>
        </mxCell>
        <mxCell id="8glMOwJfJuNUVCbfL2xH-13" value="Igra postavi korisnika" style="rounded=1;whiteSpace=wrap;html=1;arcSize=40;fontColor=#000000;fillColor=#ffffc0;strokeColor=#ff0000;" vertex="1" parent="8glMOwJfJuNUVCbfL2xH-1">
          <mxGeometry x="255" y="530" width="120" height="40" as="geometry" />
        </mxCell>
        <mxCell id="8glMOwJfJuNUVCbfL2xH-14" value="" style="edgeStyle=orthogonalEdgeStyle;html=1;verticalAlign=bottom;endArrow=open;endSize=8;strokeColor=#ff0000;" edge="1" source="8glMOwJfJuNUVCbfL2xH-13" parent="8glMOwJfJuNUVCbfL2xH-1">
          <mxGeometry relative="1" as="geometry">
            <mxPoint x="315" y="630" as="targetPoint" />
          </mxGeometry>
        </mxCell>
        <mxCell id="8glMOwJfJuNUVCbfL2xH-15" value="" style="ellipse;html=1;shape=endState;fillColor=#000000;strokeColor=#ff0000;" vertex="1" parent="8glMOwJfJuNUVCbfL2xH-1">
          <mxGeometry x="300" y="630" width="30" height="30" as="geometry" />
        </mxCell>
      </root>
    </mxGraphModel>
  </diagram>
</mxfile>
